<svg width="48" height="48" viewBox="0 0 48 48" fill="none" xmlns="http://www.w3.org/2000/svg">
<path d="M44 24L37.334 32M26 24H44H26ZM44 24L37.334 16L44 24Z" stroke="white" stroke-width="2" stroke-linecap="round" stroke-linejoin="round"/>
<path d="M28 14V10.348C28 9.79475 27.8852 9.24752 27.6629 8.7409C27.4406 8.23428 27.1156 7.77928 26.7084 7.40467C26.3013 7.03006 25.8209 6.74398 25.2976 6.56451C24.7742 6.38504 24.2193 6.31609 23.668 6.36201L7.668 7.69401C6.6681 7.77729 5.73602 8.23331 5.0566 8.97163C4.37718 9.70995 4.00005 10.6766 4 11.68V36.32C4.00005 37.3234 4.37718 38.2901 5.0566 39.0284C5.73602 39.7667 6.6681 40.2227 7.668 40.306L23.668 41.64C24.2195 41.6859 24.7746 41.6169 25.298 41.4373C25.8215 41.2578 26.302 40.9715 26.7092 40.5967C27.1163 40.2218 27.4413 39.7666 27.6635 39.2597C27.8857 38.7529 28.0002 38.2054 28 37.652V34" stroke="white" stroke-width="2" stroke-linecap="round" stroke-linejoin="round"/>
</svg>
