<svg width="21" height="21" viewBox="0 0 21 21" fill="none" xmlns="http://www.w3.org/2000/svg">
<path d="M11.5623 10.5L16.9456 4.08311C17.0359 3.97646 16.96 3.81445 16.8205 3.81445H15.184C15.0876 3.81445 14.9954 3.85752 14.9318 3.93135L10.4918 9.22441L6.0519 3.93135C5.99037 3.85752 5.89809 3.81445 5.79965 3.81445H4.16313C4.02368 3.81445 3.9478 3.97646 4.03803 4.08311L9.42133 10.5L4.03803 16.9169C4.01782 16.9407 4.00485 16.9697 4.00067 17.0007C3.99648 17.0316 4.00126 17.063 4.01443 17.0913C4.0276 17.1196 4.04862 17.1435 4.07497 17.1602C4.10133 17.1769 4.13193 17.1857 4.16313 17.1855H5.79965C5.89604 17.1855 5.98832 17.1425 6.0519 17.0687L10.4918 11.7756L14.9318 17.0687C14.9933 17.1425 15.0856 17.1855 15.184 17.1855H16.8205C16.96 17.1855 17.0359 17.0235 16.9456 16.9169L11.5623 10.5Z" fill="white"/>
</svg>
