<svg width="137" height="134" viewBox="0 0 137 134" fill="none" xmlns="http://www.w3.org/2000/svg">
<path d="M70.7922 9.22055C70.036 8.6444 69.1046 8.33151 68.1458 8.33151C67.1869 8.33151 66.2555 8.6444 65.4994 9.22055L4.26147 55.8856L9.55853 62.4324L17.046 56.7269V108.281C17.0505 110.489 17.9499 112.605 19.5473 114.166C21.1447 115.727 23.31 116.606 25.569 116.611H110.799C113.058 116.606 115.224 115.727 116.821 114.166C118.418 112.605 119.318 110.489 119.322 108.281V56.7643L126.81 62.4699L132.107 55.9231L70.7922 9.22055ZM76.7071 108.281H59.6611V74.9639H76.7071V108.281ZM85.2301 108.281V74.9639C85.2279 72.7555 84.3292 70.6382 82.7313 69.0766C81.1334 67.515 78.9669 66.6368 76.7071 66.6346H59.6611C57.4013 66.6368 55.2348 67.515 53.6369 69.0766C52.039 70.6382 51.1403 72.7555 51.1381 74.9639V108.281H25.569V50.2341L68.1841 17.7914L110.799 50.2758V108.281H85.2301Z" fill="#B44B00"/>
</svg>
