<svg width="28" height="28" viewBox="0 0 28 28" fill="none" xmlns="http://www.w3.org/2000/svg">
<path d="M2.58124 27.125C1.13749 27.125 0.481239 26.075 1.13749 24.8062L12.8187 1.83749C13.475 0.568738 14.525 0.568738 15.1812 1.83749L26.8625 24.8062C27.5187 26.075 26.8625 27.125 25.4187 27.125H2.58124Z" fill="#FFCE31"/>
<path d="M12.1625 10.325L13.3875 18.4187C13.5187 19.2062 14.525 19.2062 14.6562 18.4187L15.8375 10.325C16.0562 7.17499 11.9437 7.17499 12.1625 10.325Z" fill="#231F20"/>
<path d="M14 23.5375C15.0148 23.5375 15.8375 22.7148 15.8375 21.7C15.8375 20.6852 15.0148 19.8625 14 19.8625C12.9852 19.8625 12.1625 20.6852 12.1625 21.7C12.1625 22.7148 12.9852 23.5375 14 23.5375Z" fill="#231F20"/>
</svg>
